<svg viewBox="0 0 100 100" width="100" height="100" xmlns="http://www.w3.org/2000/svg">
  <!-- Left page -->
  <path d="M50 92 Q22 80 2 85 L2 8 Q22 2 50 16Z" fill="#f5c4c0"/>
  <!-- Right page -->
  <path d="M50 92 Q78 80 98 85 L98 8 Q78 2 50 16Z" fill="#d9cfef"/>
  <!-- Spine -->
  <line x1="50" y1="16" x2="50" y2="92" stroke="#e8908a" stroke-width="4" stroke-linecap="round"/>
  <!-- Heart -->
  <path d="M50 42 C50 33 59 27 66 34 C73 27 82 33 82 42 C82 51 66 63 66 63 C66 63 50 51 50 42Z" fill="#e8908a"/>
  <!-- Left page lines -->
  <line x1="8" y1="48" x2="42" y2="44" stroke="#e8908a" stroke-width="2.5" stroke-linecap="round" opacity="0.55"/>
  <line x1="8" y1="60" x2="41" y2="56" stroke="#e8908a" stroke-width="2" stroke-linecap="round" opacity="0.38"/>
  <line x1="8" y1="72" x2="40" y2="68" stroke="#e8908a" stroke-width="2" stroke-linecap="round" opacity="0.22"/>
</svg>